<?xml version="1.0" encoding="UTF-8"?>
<svg xmlns="http://www.w3.org/2000/svg" xmlns:xlink="http://www.w3.org/1999/xlink" viewBox="0 0 500 500">
  <defs>
    <style>
      .cls-1 {
        fill: url(#linear-gradient-3);
      }

      .cls-1, .cls-2, .cls-3, .cls-4, .cls-5, .cls-6, .cls-7, .cls-8, .cls-9 {
        mix-blend-mode: multiply;
      }

      .cls-10 {
        fill: url(#linear-gradient-2);
      }

      .cls-2 {
        fill: url(#linear-gradient-13);
      }

      .cls-3 {
        fill: url(#linear-gradient-10);
      }

      .cls-11 {
        fill: #121322;
      }

      .cls-12 {
        fill: url(#linear-gradient-14);
      }

      .cls-13 {
        isolation: isolate;
      }

      .cls-4 {
        fill: url(#linear-gradient-6);
      }

      .cls-5 {
        fill: url(#linear-gradient-5);
      }

      .cls-14 {
        fill: url(#linear-gradient-11);
      }

      .cls-14, .cls-15 {
        opacity: .7;
      }

      .cls-6 {
        fill: url(#linear-gradient-15);
      }

      .cls-15 {
        fill: url(#linear-gradient-8);
      }

      .cls-7 {
        fill: url(#linear-gradient-12);
      }

      .cls-16 {
        fill: url(#linear-gradient-9);
      }

      .cls-8 {
        fill: url(#linear-gradient-7);
      }

      .cls-17 {
        fill: url(#linear-gradient);
      }

      .cls-18 {
        fill: url(#linear-gradient-4);
      }
    </style>
    <linearGradient id="linear-gradient" x1="139.36" y1="247.99" x2="327" y2="251.12" gradientUnits="userSpaceOnUse">
      <stop offset="0" stop-color="#5432c4"/>
      <stop offset="1" stop-color="#db3abc"/>
    </linearGradient>
    <linearGradient id="linear-gradient-2" x1="139.36" y1="247.99" x2="327" y2="251.12" gradientUnits="userSpaceOnUse">
      <stop offset="0" stop-color="#0c4eff"/>
      <stop offset="1" stop-color="#3fe1ff"/>
    </linearGradient>
    <linearGradient id="linear-gradient-3" x1="231.8" y1="250.48" x2="218.86" y2="250.25" gradientUnits="userSpaceOnUse">
      <stop offset="0" stop-color="#712286"/>
      <stop offset=".15" stop-color="#762a8a" stop-opacity=".96"/>
      <stop offset=".33" stop-color="#864398" stop-opacity=".85"/>
      <stop offset=".53" stop-color="#a16daf" stop-opacity=".66"/>
      <stop offset=".74" stop-color="#c6a7ce" stop-opacity=".4"/>
      <stop offset=".96" stop-color="#f5f0f7" stop-opacity=".06"/>
      <stop offset="1" stop-color="#fff" stop-opacity="0"/>
    </linearGradient>
    <linearGradient id="linear-gradient-4" x1="230.42" y1="250.19" x2="351.95" y2="250.19" gradientUnits="userSpaceOnUse">
      <stop offset="0" stop-color="#0c64ff"/>
      <stop offset=".21" stop-color="#1479ff"/>
      <stop offset=".65" stop-color="#2bb0ff"/>
      <stop offset="1" stop-color="#3fe1ff"/>
    </linearGradient>
    <linearGradient id="linear-gradient-5" x1="293.13" y1="197.23" x2="337.81" y2="231.03" gradientUnits="userSpaceOnUse">
      <stop offset="0" stop-color="#fff" stop-opacity="0"/>
      <stop offset=".51" stop-color="#712286"/>
      <stop offset=".65" stop-color="#965ca6" stop-opacity=".73"/>
      <stop offset=".97" stop-color="#f6f1f7" stop-opacity=".06"/>
      <stop offset="1" stop-color="#fff" stop-opacity="0"/>
    </linearGradient>
    <linearGradient id="linear-gradient-6" x1="341.1" y1="269.75" x2="290.21" y2="303.95" gradientUnits="userSpaceOnUse">
      <stop offset="0" stop-color="#fff" stop-opacity="0"/>
      <stop offset=".47" stop-color="#712286"/>
      <stop offset=".62" stop-color="#9458a4" stop-opacity=".75"/>
      <stop offset=".94" stop-color="#ede3ef" stop-opacity=".13"/>
      <stop offset="1" stop-color="#fff" stop-opacity="0"/>
    </linearGradient>
    <linearGradient id="linear-gradient-7" x1="290.51" y1="363.94" x2="291.1" y2="236.51" xlink:href="#linear-gradient-3"/>
    <linearGradient id="linear-gradient-8" x1="291.96" y1="146.3" x2="291.07" y2="230.66" gradientUnits="userSpaceOnUse">
      <stop offset="0" stop-color="#fff"/>
      <stop offset="1" stop-color="#fff" stop-opacity="0"/>
    </linearGradient>
    <linearGradient id="linear-gradient-9" x1="145.92" y1="248.89" x2="324.53" y2="251.87" gradientUnits="userSpaceOnUse">
      <stop offset="0" stop-color="#0c64ff"/>
      <stop offset="1" stop-color="#3fe1ff"/>
    </linearGradient>
    <linearGradient id="linear-gradient-10" x1="239.2" y1="396.68" x2="239.5" y2="267.2" xlink:href="#linear-gradient-3"/>
    <linearGradient id="linear-gradient-11" x1="242.62" y1="101.89" x2="240.24" y2="209.38" xlink:href="#linear-gradient-8"/>
    <linearGradient id="linear-gradient-12" x1="220.88" y1="167.39" x2="221.13" y2="188.07" gradientTransform="translate(-23.89 357.01) scale(1 -1)" xlink:href="#linear-gradient-3"/>
    <linearGradient id="linear-gradient-13" x1="220.88" y1="149.29" x2="221.13" y2="169.96" gradientTransform="translate(-23.89 161.49)" xlink:href="#linear-gradient-3"/>
    <linearGradient id="linear-gradient-14" x1="245.62" y1="249.09" x2="262.4" y2="249.75" gradientUnits="userSpaceOnUse">
      <stop offset="0" stop-color="#712286"/>
      <stop offset=".15" stop-color="#762a8a" stop-opacity=".96"/>
      <stop offset=".33" stop-color="#864398" stop-opacity=".85"/>
      <stop offset=".53" stop-color="#a16daf" stop-opacity=".66"/>
      <stop offset=".74" stop-color="#c6a7ce" stop-opacity=".4"/>
      <stop offset=".96" stop-color="#f5f0f7" stop-opacity=".06"/>
      <stop offset="1" stop-color="#fff" stop-opacity="0"/>
    </linearGradient>
    <linearGradient id="linear-gradient-15" x1="290.71" y1="248.46" x2="291.38" y2="269.75" xlink:href="#linear-gradient-3"/>
  </defs>
  <g class="cls-13">
    <g id="BACKGROUND">
      <rect class="cls-11" width="500" height="500"/>
    </g>
    <g id="OBJECTS">
      <g>
        <path class="cls-17" d="m271.84,239.35c-4.26.69-8.38,1.06-11.89,1.06h-44.16v19.76h44.16c3.53,0,7.65.35,11.91,1.02l3.73.59v-23.04l-3.75.61Z"/>
        <path class="cls-10" d="m271.84,239.35c-4.26.69-8.38,1.06-11.89,1.06h-44.16v19.76h44.16c3.53,0,7.65.35,11.91,1.02l3.73.59v-23.04l-3.75.61Z"/>
        <rect class="cls-1" x="214.99" y="240.48" width="19.91" height="19.76"/>
        <path class="cls-18" d="m293.99,186.34l-63.57-.03v125.65l4.26.61v.25s7.97.57,7.97.57c2.21.2,23.01.69,31.08.69,26.18,0,45.26-4.98,58.35-15.22,13.18-10.31,19.86-26.04,19.86-46.75,0-37.9-21.67-62.48-57.96-65.76Zm38.22,64.27c0,27.59-17.84,44.73-46.55,44.73-4.97,0-25.99-.45-35.34-.69v-89.26h41.23c24.7,1.34,40.66,19.09,40.66,45.22Z"/>
        <path class="cls-5" d="m351.93,251.25c-.32-37.41-21.93-61.66-57.94-64.91h-23.41s0,19.05,0,19.05h20.98c24.7,1.34,40.66,19.09,40.66,45.23,0,.22-.01.43-.01.64h19.73Z"/>
        <path class="cls-4" d="m332.17,252.54c-.82,26.45-18.47,42.79-46.51,42.79-2.38,0-8.41-.1-15.09-.24v18.96c1.18.01,2.25.02,3.16.02,26.18,0,45.26-4.98,58.35-15.22,13.08-10.24,19.76-25.82,19.85-46.31h-19.77Z"/>
        <path class="cls-8" d="m293.99,186.34l-63.57-.03v125.65l4.26.61v.25s7.97.57,7.97.57c2.21.2,23.01.69,31.08.69,26.18,0,45.26-4.98,58.35-15.22,13.18-10.31,19.86-26.04,19.86-46.75,0-37.9-21.67-62.48-57.96-65.76Zm36.03,109.87c-12.48,9.76-30.89,14.51-56.28,14.51-8.33,0-28.87-.5-30.78-.67l-4.82-.35v-.03s-4.36-.62-4.36-.62v-119.37l60.05.02c34.29,3.16,54.75,26.48,54.75,62.4,0,19.63-6.25,34.47-18.57,44.11Z"/>
        <path class="cls-15" d="m293.99,186.34l-63.57-.03v125.65l4.26.61v.25s7.97.57,7.97.57c2.21.2,23.01.69,31.08.69,26.18,0,45.26-4.98,58.35-15.22,13.18-10.31,19.86-26.04,19.86-46.75,0-37.9-21.67-62.48-57.96-65.76Zm36.03,109.87c-12.48,9.76-30.89,14.51-56.28,14.51-8.33,0-28.87-.5-30.78-.67l-4.82-.35v-.03s-4.36-.62-4.36-.62v-119.37l60.05.02c34.29,3.16,54.75,26.48,54.75,62.4,0,19.63-6.25,34.47-18.57,44.11Z"/>
        <path class="cls-16" d="m328.43,279.57c1.75,5.24,2.66,10.92,2.66,16.97,0,33.68-26.28,57.2-63.9,57.2h-86.2c-8.83,0-16.23-3.31-23.32-10.4-6.06-6.06-9.16-12.95-9.49-21.06l-.13-3.36h19.18l.48,2.66c.31,1.72,1.33,6.02,4.27,8.95,2.16,2.16,5.58,3.62,14.6,3.67v-168.02c-9.02.05-12.44,1.51-14.61,3.67-2.93,2.94-3.95,7.24-4.26,8.94l-.48,2.68h-19.18l.13-3.36c.33-8.12,3.43-15.02,9.49-21.07,7.09-7.1,14.49-10.39,23.32-10.39h86.2c37.62,0,63.9,23.51,63.9,57.18,0,19.42-8.81,35.1-24.16,43.03-.38.23-.86.52-1.61.88-1.64.88-3.21,1.68-4.73,2.38,2.03.91,4.05,2,6.05,3.24l.29.17c10.53,6.15,17.86,15.11,21.5,26.04Zm-18.15,16.97c0-6.64-1.31-12.09-4.23-16.97-1.89-3.15-4.45-6.06-7.74-8.87-7.32-6.2-26.09-10.53-38.36-10.53h-5.61v-19.76h5.61c13.69,0,31.61-5.01,38.37-10.74,8.39-7.18,11.96-14.91,11.96-25.84,0-22.28-14.54-36.34-38.91-37.62h-63.69v167.95h63.69c24.37-1.26,38.91-15.32,38.91-37.62Z"/>
        <path class="cls-3" d="m306.92,253.54l-.28-.17c-2-1.25-4.02-2.33-6.05-3.25,1.51-.7,3.09-1.49,4.73-2.38.75-.35,1.23-.64,1.6-.88,15.36-7.93,24.16-23.6,24.16-43.02,0-33.68-26.27-57.19-63.89-57.19h-86.21c-8.82,0-16.22,3.3-23.32,10.39-6.06,6.06-9.16,12.95-9.48,21.07l-.13,3.36h3.87c.43-10.18,3.5-17.43,8.12-22.05,6.42-6.42,13.07-9.41,20.94-9.41h86.21c35.64,0,60.53,22.14,60.53,53.83,0,18.11-8.14,32.7-22.34,40.03l-.15.08-.14.09c-.28.18-.61.38-1.2.65l-.19.09c-1.55.85-3.07,1.61-4.52,2.28l-6.68,3.08,6.7,3.03c1.89.85,3.79,1.88,5.66,3.04l.29.18c14.58,8.5,22.57,22.75,22.57,40.15,0,31.7-24.89,53.84-60.53,53.84h-86.21c-7.87,0-14.52-2.99-20.94-9.41-5.01-5.01-9.09-12.41-8.67-22.05h-3.32l.13,3.36c.32,8.12,3.42,15.01,9.48,21.07,7.09,7.09,14.5,10.39,23.32,10.39h86.21c37.62,0,63.89-23.52,63.89-57.19,0-18.65-8.58-33.92-24.16-43.01Z"/>
        <path class="cls-14" d="m306.92,253.54l-.28-.17c-2-1.25-4.02-2.33-6.05-3.25,1.51-.7,3.09-1.49,4.73-2.38.75-.35,1.23-.64,1.6-.88,15.36-7.93,24.16-23.6,24.16-43.02,0-33.68-26.27-57.19-63.89-57.19h-86.21c-8.82,0-16.22,3.3-23.32,10.39-6.06,6.06-9.16,12.95-9.48,21.07l-.13,3.36h3.87c.43-10.18,3.5-17.43,8.12-22.05,6.42-6.42,13.07-9.41,20.94-9.41h86.21c35.64,0,60.53,22.14,60.53,53.83,0,18.11-8.14,32.7-22.34,40.03l-.15.08-.14.09c-.28.18-.61.38-1.2.65l-.19.09c-1.55.85-3.07,1.61-4.52,2.28l-6.68,3.08,6.7,3.03c1.89.85,3.79,1.88,5.66,3.04l.29.18c14.58,8.5,22.57,22.75,22.57,40.15,0,31.7-24.89,53.84-60.53,53.84h-86.21c-7.87,0-14.52-2.99-20.94-9.41-5.01-5.01-9.09-12.41-8.67-22.05h-3.32l.13,3.36c.32,8.12,3.42,15.01,9.48,21.07,7.09,7.09,14.5,10.39,23.32,10.39h86.21c37.62,0,63.89-23.52,63.89-57.19,0-18.65-8.58-33.92-24.16-43.01Z"/>
        <path class="cls-7" d="m186.58,166.22h21.1v24.57h0c-11.64,0-21.09-9.45-21.09-21.09v-3.48h0Z" transform="translate(394.26 357.01) rotate(180)"/>
        <path class="cls-2" d="m207.68,309.6h0v24.57h-21.1v-3.48c0-11.64,9.45-21.09,21.09-21.09Z" transform="translate(394.26 643.77) rotate(180)"/>
        <g class="cls-9">
          <path class="cls-12" d="m259.95,260.17c3.53,0,7.65.35,11.91,1.02l3.73.59v-23.04l-3.75.61c-4.26.69-8.38,1.06-11.89,1.06h-9.63v19.76h9.63Z"/>
        </g>
        <path class="cls-6" d="m328.42,279.58h-22.38c-1.89-3.15-4.44-6.06-7.74-8.88-7.31-6.2-26.09-10.53-38.36-10.53h-5.61v-.05c30.65-.76,46.26-10,46.26-10,2.03.92,4.04,2,6.05,3.24l.28.17c10.53,6.15,17.87,15.12,21.5,26.05Z"/>
      </g>
    </g>
  </g>
</svg>