<?xml version="1.0" encoding="UTF-8"?>
<svg xmlns="http://www.w3.org/2000/svg" xmlns:xlink="http://www.w3.org/1999/xlink" viewBox="0 0 422.27 158.63">
  <defs>
    <style>
      .cls-1 {
        fill: url(#linear-gradient-3);
      }

      .cls-1, .cls-2, .cls-3, .cls-4, .cls-5, .cls-6, .cls-7, .cls-8, .cls-9 {
        mix-blend-mode: multiply;
      }

      .cls-10 {
        fill: url(#linear-gradient-2);
      }

      .cls-2 {
        fill: url(#linear-gradient-13);
      }

      .cls-3 {
        fill: url(#linear-gradient-10);
      }

      .cls-11 {
        fill: url(#linear-gradient-14);
      }

      .cls-12 {
        isolation: isolate;
      }

      .cls-4 {
        fill: url(#linear-gradient-6);
      }

      .cls-5 {
        fill: url(#linear-gradient-5);
      }

      .cls-13 {
        fill: url(#linear-gradient-11);
      }

      .cls-13, .cls-14 {
        opacity: .7;
      }

      .cls-15 {
        letter-spacing: -.02em;
      }

      .cls-6 {
        fill: url(#linear-gradient-15);
      }

      .cls-14 {
        fill: url(#linear-gradient-8);
      }

      .cls-7 {
        fill: url(#linear-gradient-12);
      }

      .cls-16 {
        fill: url(#linear-gradient-9);
      }

      .cls-17 {
        fill: none;
        stroke: #0f6dff;
        stroke-miterlimit: 10;
        stroke-width: 3.46px;
      }

      .cls-8 {
        fill: url(#linear-gradient-7);
      }

      .cls-18 {
        fill: url(#linear-gradient);
      }

      .cls-19 {
        fill: url(#linear-gradient-4);
      }

      .cls-20 {
        letter-spacing: .02em;
      }

      .cls-21 {
        fill: #0f6dff;
        font-family: Montserrat-Medium, Montserrat;
        font-size: 50.01px;
        font-variation-settings: 'wght' 500;
        font-weight: 500;
      }
    </style>
    <linearGradient id="linear-gradient" x1="4.4" y1="78.78" x2="124.51" y2="80.78" gradientUnits="userSpaceOnUse">
      <stop offset="0" stop-color="#5432c4"/>
      <stop offset="1" stop-color="#db3abc"/>
    </linearGradient>
    <linearGradient id="linear-gradient-2" x1="4.4" y1="78.78" x2="124.51" y2="80.78" gradientUnits="userSpaceOnUse">
      <stop offset="0" stop-color="#0c4eff"/>
      <stop offset="1" stop-color="#3fe1ff"/>
    </linearGradient>
    <linearGradient id="linear-gradient-3" x1="63.57" y1="80.38" x2="55.29" y2="80.22" gradientUnits="userSpaceOnUse">
      <stop offset="0" stop-color="#712286"/>
      <stop offset=".15" stop-color="#762a8a" stop-opacity=".96"/>
      <stop offset=".33" stop-color="#864398" stop-opacity=".85"/>
      <stop offset=".53" stop-color="#a16daf" stop-opacity=".66"/>
      <stop offset=".74" stop-color="#c6a7ce" stop-opacity=".4"/>
      <stop offset=".96" stop-color="#f5f0f7" stop-opacity=".06"/>
      <stop offset="1" stop-color="#fff" stop-opacity="0"/>
    </linearGradient>
    <linearGradient id="linear-gradient-4" x1="62.68" y1="80.19" x2="140.47" y2="80.19" gradientUnits="userSpaceOnUse">
      <stop offset="0" stop-color="#0c64ff"/>
      <stop offset=".21" stop-color="#1479ff"/>
      <stop offset=".65" stop-color="#2bb0ff"/>
      <stop offset="1" stop-color="#3fe1ff"/>
    </linearGradient>
    <linearGradient id="linear-gradient-5" x1="102.82" y1="46.29" x2="131.42" y2="67.92" gradientUnits="userSpaceOnUse">
      <stop offset="0" stop-color="#fff" stop-opacity="0"/>
      <stop offset=".51" stop-color="#712286"/>
      <stop offset=".65" stop-color="#965ca6" stop-opacity=".73"/>
      <stop offset=".97" stop-color="#f6f1f7" stop-opacity=".06"/>
      <stop offset="1" stop-color="#fff" stop-opacity="0"/>
    </linearGradient>
    <linearGradient id="linear-gradient-6" x1="133.53" y1="92.71" x2="100.95" y2="114.6" gradientUnits="userSpaceOnUse">
      <stop offset="0" stop-color="#fff" stop-opacity="0"/>
      <stop offset=".47" stop-color="#712286"/>
      <stop offset=".62" stop-color="#9458a4" stop-opacity=".75"/>
      <stop offset=".94" stop-color="#ede3ef" stop-opacity=".13"/>
      <stop offset="1" stop-color="#fff" stop-opacity="0"/>
    </linearGradient>
    <linearGradient id="linear-gradient-7" x1="101.15" y1="153" x2="101.53" y2="71.43" xlink:href="#linear-gradient-3"/>
    <linearGradient id="linear-gradient-8" x1="102.07" y1="13.69" x2="101.5" y2="67.69" gradientUnits="userSpaceOnUse">
      <stop offset="0" stop-color="#fff"/>
      <stop offset="1" stop-color="#fff" stop-opacity="0"/>
    </linearGradient>
    <linearGradient id="linear-gradient-9" x1="8.59" y1="79.36" x2="122.92" y2="81.26" gradientUnits="userSpaceOnUse">
      <stop offset="0" stop-color="#0c64ff"/>
      <stop offset="1" stop-color="#3fe1ff"/>
    </linearGradient>
    <linearGradient id="linear-gradient-10" x1="68.3" y1="173.96" x2="68.5" y2="91.07" xlink:href="#linear-gradient-3"/>
    <linearGradient id="linear-gradient-11" x1="70.5" y1="-14.74" x2="68.97" y2="54.06" xlink:href="#linear-gradient-8"/>
    <linearGradient id="linear-gradient-12" x1="298.96" y1="27.19" x2="299.12" y2="40.42" gradientTransform="translate(-257.67 68.6) scale(1 -1)" xlink:href="#linear-gradient-3"/>
    <linearGradient id="linear-gradient-13" x1="298.96" y1="7.54" x2="299.12" y2="20.78" gradientTransform="translate(-257.67 111.43)" xlink:href="#linear-gradient-3"/>
    <linearGradient id="linear-gradient-14" x1="72.41" y1="79.49" x2="83.15" y2="79.91" gradientUnits="userSpaceOnUse">
      <stop offset="0" stop-color="#712286"/>
      <stop offset=".15" stop-color="#762a8a" stop-opacity=".96"/>
      <stop offset=".33" stop-color="#864398" stop-opacity=".85"/>
      <stop offset=".53" stop-color="#a16daf" stop-opacity=".66"/>
      <stop offset=".74" stop-color="#c6a7ce" stop-opacity=".4"/>
      <stop offset=".96" stop-color="#f5f0f7" stop-opacity=".06"/>
      <stop offset="1" stop-color="#fff" stop-opacity="0"/>
    </linearGradient>
    <linearGradient id="linear-gradient-15" x1="101.27" y1="79.08" x2="101.7" y2="92.71" xlink:href="#linear-gradient-3"/>
  </defs>
  <g class="cls-12">
    <g id="OBJECTS">
      <g>
        <g>
          <path class="cls-18" d="m89.2,73.25c-2.73.44-5.36.68-7.61.68h-28.27v12.65h28.27c2.26,0,4.9.23,7.62.66l2.39.38v-14.75l-2.4.39Z"/>
          <path class="cls-10" d="m89.2,73.25c-2.73.44-5.36.68-7.61.68h-28.27v12.65h28.27c2.26,0,4.9.23,7.62.66l2.39.38v-14.75l-2.4.39Z"/>
          <rect class="cls-1" x="52.81" y="73.97" width="12.75" height="12.65"/>
          <path class="cls-19" d="m103.37,39.32l-40.69-.02v80.43l2.73.39v.16s5.1.37,5.1.37c1.42.13,14.73.44,19.9.44,16.76,0,28.97-3.19,37.35-9.74,8.44-6.6,12.71-16.67,12.71-29.93,0-24.26-13.87-39.99-37.1-42.1Zm24.47,41.14c0,17.66-11.42,28.63-29.8,28.63-3.18,0-16.63-.29-22.62-.44v-57.14h26.39c15.81.86,26.02,12.22,26.02,28.95Z"/>
          <path class="cls-5" d="m140.46,80.87c-.21-23.95-14.04-39.47-37.09-41.55h-14.99s0,12.19,0,12.19h13.43c15.81.86,26.02,12.22,26.02,28.95,0,.14,0,.27,0,.41h12.63Z"/>
          <path class="cls-4" d="m127.82,81.69c-.52,16.93-11.83,27.39-29.77,27.39-1.52,0-5.38-.07-9.66-.15v12.14c.76,0,1.44.01,2.02.01,16.76,0,28.97-3.19,37.35-9.74,8.38-6.55,12.65-16.53,12.71-29.64h-12.65Z"/>
          <path class="cls-8" d="m103.37,39.32l-40.69-.02v80.43l2.73.39v.16s5.1.37,5.1.37c1.42.13,14.73.44,19.9.44,16.76,0,28.97-3.19,37.35-9.74,8.44-6.6,12.71-16.67,12.71-29.93,0-24.26-13.87-39.99-37.1-42.1Zm23.06,70.33c-7.99,6.25-19.77,9.29-36.03,9.29-5.33,0-18.48-.32-19.7-.43l-3.08-.22v-.02s-2.79-.4-2.79-.4V41.45l38.44.02c21.95,2.03,35.05,16.95,35.05,39.94,0,12.56-4,22.06-11.89,28.23Z"/>
          <path class="cls-14" d="m103.37,39.32l-40.69-.02v80.43l2.73.39v.16s5.1.37,5.1.37c1.42.13,14.73.44,19.9.44,16.76,0,28.97-3.19,37.35-9.74,8.44-6.6,12.71-16.67,12.71-29.93,0-24.26-13.87-39.99-37.1-42.1Zm23.06,70.33c-7.99,6.25-19.77,9.29-36.03,9.29-5.33,0-18.48-.32-19.7-.43l-3.08-.22v-.02s-2.79-.4-2.79-.4V41.45l38.44.02c21.95,2.03,35.05,16.95,35.05,39.94,0,12.56-4,22.06-11.89,28.23Z"/>
          <path class="cls-16" d="m125.42,99c1.12,3.35,1.7,6.99,1.7,10.86,0,21.56-16.82,36.61-40.9,36.61H31.04c-5.65,0-10.39-2.12-14.93-6.66-3.88-3.88-5.86-8.29-6.07-13.48l-.08-2.15h12.28l.31,1.7c.2,1.1.85,3.85,2.73,5.73,1.38,1.38,3.57,2.32,9.35,2.35V26.41c-5.77.03-7.96.97-9.35,2.35-1.88,1.88-2.53,4.63-2.73,5.72l-.31,1.72h-12.28l.08-2.15c.21-5.2,2.2-9.61,6.07-13.49,4.54-4.54,9.28-6.65,14.93-6.65h55.18c24.08,0,40.9,15.05,40.9,36.6,0,12.43-5.64,22.47-15.47,27.54-.24.15-.55.33-1.03.56-1.05.56-2.05,1.08-3.03,1.52,1.3.58,2.59,1.28,3.87,2.07l.19.11c6.74,3.94,11.43,9.67,13.76,16.67Zm-11.62,10.86c0-4.25-.84-7.74-2.71-10.86-1.21-2.02-2.85-3.88-4.95-5.68-4.69-3.97-16.7-6.74-24.55-6.74h-3.59v-12.65h3.59c8.76,0,20.23-3.21,24.56-6.87,5.37-4.6,7.66-9.54,7.66-16.54,0-14.26-9.31-23.26-24.91-24.08h-40.77v107.51h40.77c15.6-.81,24.91-9.81,24.91-24.08Z"/>
          <path class="cls-3" d="m111.65,82.33l-.18-.11c-1.28-.8-2.58-1.49-3.87-2.08.97-.45,1.98-.95,3.02-1.52.48-.22.79-.41,1.02-.56,9.83-5.08,15.47-15.11,15.47-27.54,0-21.56-16.82-36.61-40.9-36.61H31.04c-5.64,0-10.39,2.11-14.92,6.65-3.88,3.88-5.86,8.29-6.07,13.49l-.08,2.15h2.48c.27-6.51,2.24-11.16,5.19-14.11,4.11-4.11,8.37-6.02,13.4-6.02h55.19c22.81,0,38.75,14.17,38.75,34.46,0,11.59-5.21,20.93-14.3,25.63l-.09.05-.09.06c-.18.11-.39.24-.77.42l-.12.06c-.99.54-1.97,1.03-2.9,1.46l-4.28,1.97,4.29,1.94c1.21.55,2.43,1.2,3.62,1.95l.18.11c9.33,5.44,14.44,14.56,14.44,25.7,0,20.29-15.93,34.46-38.75,34.46H31.04c-5.04,0-9.3-1.91-13.4-6.02-3.21-3.21-5.82-7.94-5.55-14.11h-2.12l.08,2.15c.2,5.2,2.19,9.61,6.07,13.49,4.54,4.54,9.28,6.65,14.92,6.65h55.19c24.08,0,40.9-15.06,40.9-36.61,0-11.94-5.49-21.71-15.46-27.53Z"/>
          <path class="cls-13" d="m111.65,82.33l-.18-.11c-1.28-.8-2.58-1.49-3.87-2.08.97-.45,1.98-.95,3.02-1.52.48-.22.79-.41,1.02-.56,9.83-5.08,15.47-15.11,15.47-27.54,0-21.56-16.82-36.61-40.9-36.61H31.04c-5.64,0-10.39,2.11-14.92,6.65-3.88,3.88-5.86,8.29-6.07,13.49l-.08,2.15h2.48c.27-6.51,2.24-11.16,5.19-14.11,4.11-4.11,8.37-6.02,13.4-6.02h55.19c22.81,0,38.75,14.17,38.75,34.46,0,11.59-5.21,20.93-14.3,25.63l-.09.05-.09.06c-.18.11-.39.24-.77.42l-.12.06c-.99.54-1.97,1.03-2.9,1.46l-4.28,1.97,4.29,1.94c1.21.55,2.43,1.2,3.62,1.95l.18.11c9.33,5.44,14.44,14.56,14.44,25.7,0,20.29-15.93,34.46-38.75,34.46H31.04c-5.04,0-9.3-1.91-13.4-6.02-3.21-3.21-5.82-7.94-5.55-14.11h-2.12l.08,2.15c.2,5.2,2.19,9.61,6.07,13.49,4.54,4.54,9.28,6.65,14.92,6.65h55.19c24.08,0,40.9-15.06,40.9-36.61,0-11.94-5.49-21.71-15.46-27.53Z"/>
          <path class="cls-7" d="m34.62,26.44h13.5v15.73h0c-7.45,0-13.5-6.05-13.5-13.5v-2.23h0Z" transform="translate(82.75 68.6) rotate(180)"/>
          <path class="cls-2" d="m48.13,118.22h0v15.73h-13.5v-2.23c0-7.45,6.05-13.5,13.5-13.5Z" transform="translate(82.75 252.16) rotate(180)"/>
          <g class="cls-9">
            <path class="cls-11" d="m81.59,86.58c2.26,0,4.9.23,7.62.66l2.39.38v-14.75l-2.4.39c-2.73.44-5.36.68-7.61.68h-6.16v12.65h6.16Z"/>
          </g>
          <path class="cls-6" d="m125.42,99h-14.32c-1.21-2.02-2.85-3.88-4.95-5.68-4.68-3.97-16.7-6.74-24.56-6.74h-3.59v-.03c19.62-.49,29.61-6.4,29.61-6.4,1.3.59,2.59,1.28,3.87,2.08l.18.11c6.74,3.94,11.44,9.68,13.76,16.67Z"/>
        </g>
        <text class="cls-21" transform="translate(143.62 90.12)"><tspan x="0" y="0">B</tspan><tspan class="cls-20" x="37.86" y="0">y</tspan><tspan class="cls-15" x="66.56" y="0">t</tspan><tspan x="86.26" y="0">ed Digi</tspan></text>
      </g>
      <rect class="cls-17" x="1.73" y="1.73" width="418.81" height="155.17" rx="13.64" ry="13.64"/>
    </g>
  </g>
</svg>