<?xml version="1.0" encoding="UTF-8"?>
<svg xmlns="http://www.w3.org/2000/svg" xmlns:xlink="http://www.w3.org/1999/xlink" viewBox="0 0 459.65 134.94">
  <defs>
    <style>
      .cls-1 {
        fill: url(#linear-gradient-3);
      }

      .cls-1, .cls-2, .cls-3, .cls-4, .cls-5, .cls-6, .cls-7, .cls-8, .cls-9 {
        mix-blend-mode: multiply;
      }

      .cls-10 {
        fill: url(#linear-gradient-2);
      }

      .cls-2 {
        fill: url(#linear-gradient-13);
      }

      .cls-3 {
        fill: url(#linear-gradient-10);
      }

      .cls-11 {
        fill: url(#linear-gradient-14);
      }

      .cls-12 {
        isolation: isolate;
      }

      .cls-4 {
        fill: url(#linear-gradient-6);
      }

      .cls-5 {
        fill: url(#linear-gradient-5);
      }

      .cls-13 {
        fill: url(#linear-gradient-11);
      }

      .cls-13, .cls-14 {
        opacity: .7;
      }

      .cls-15 {
        fill: #0f6dff;
        font-family: KronaOne-Regular, 'Krona One';
        font-size: 47.97px;
      }

      .cls-6 {
        fill: url(#linear-gradient-15);
      }

      .cls-14 {
        fill: url(#linear-gradient-8);
      }

      .cls-7 {
        fill: url(#linear-gradient-12);
      }

      .cls-16 {
        fill: url(#linear-gradient-9);
      }

      .cls-17 {
        fill: none;
        stroke: #0f6dff;
        stroke-miterlimit: 10;
        stroke-width: 3.33px;
      }

      .cls-8 {
        fill: url(#linear-gradient-7);
      }

      .cls-18 {
        fill: url(#linear-gradient);
      }

      .cls-19 {
        fill: url(#linear-gradient-4);
      }
    </style>
    <linearGradient id="linear-gradient" x1="8.41" y1="66.4" x2="99.39" y2="67.92" gradientUnits="userSpaceOnUse">
      <stop offset="0" stop-color="#5432c4"/>
      <stop offset="1" stop-color="#db3abc"/>
    </linearGradient>
    <linearGradient id="linear-gradient-2" x1="8.41" y1="66.4" x2="99.39" y2="67.92" gradientUnits="userSpaceOnUse">
      <stop offset="0" stop-color="#0c4eff"/>
      <stop offset="1" stop-color="#3fe1ff"/>
    </linearGradient>
    <linearGradient id="linear-gradient-3" x1="53.23" y1="67.61" x2="46.96" y2="67.49" gradientUnits="userSpaceOnUse">
      <stop offset="0" stop-color="#712286"/>
      <stop offset=".15" stop-color="#762a8a" stop-opacity=".96"/>
      <stop offset=".33" stop-color="#864398" stop-opacity=".85"/>
      <stop offset=".53" stop-color="#a16daf" stop-opacity=".66"/>
      <stop offset=".74" stop-color="#c6a7ce" stop-opacity=".4"/>
      <stop offset=".96" stop-color="#f5f0f7" stop-opacity=".06"/>
      <stop offset="1" stop-color="#fff" stop-opacity="0"/>
    </linearGradient>
    <linearGradient id="linear-gradient-4" x1="52.56" y1="67.47" x2="111.49" y2="67.47" gradientUnits="userSpaceOnUse">
      <stop offset="0" stop-color="#0c64ff"/>
      <stop offset=".21" stop-color="#1479ff"/>
      <stop offset=".65" stop-color="#2bb0ff"/>
      <stop offset="1" stop-color="#3fe1ff"/>
    </linearGradient>
    <linearGradient id="linear-gradient-5" x1="82.97" y1="41.79" x2="104.63" y2="58.17" gradientUnits="userSpaceOnUse">
      <stop offset="0" stop-color="#fff" stop-opacity="0"/>
      <stop offset=".51" stop-color="#712286"/>
      <stop offset=".65" stop-color="#965ca6" stop-opacity=".73"/>
      <stop offset=".97" stop-color="#f6f1f7" stop-opacity=".06"/>
      <stop offset="1" stop-color="#fff" stop-opacity="0"/>
    </linearGradient>
    <linearGradient id="linear-gradient-6" x1="106.23" y1="76.95" x2="81.55" y2="93.53" gradientUnits="userSpaceOnUse">
      <stop offset="0" stop-color="#fff" stop-opacity="0"/>
      <stop offset=".47" stop-color="#712286"/>
      <stop offset=".62" stop-color="#9458a4" stop-opacity=".75"/>
      <stop offset=".94" stop-color="#ede3ef" stop-opacity=".13"/>
      <stop offset="1" stop-color="#fff" stop-opacity="0"/>
    </linearGradient>
    <linearGradient id="linear-gradient-7" x1="81.7" y1="122.62" x2="81.99" y2="60.83" xlink:href="#linear-gradient-3"/>
    <linearGradient id="linear-gradient-8" x1="82.4" y1="17.09" x2="81.97" y2="58" gradientUnits="userSpaceOnUse">
      <stop offset="0" stop-color="#fff"/>
      <stop offset="1" stop-color="#fff" stop-opacity="0"/>
    </linearGradient>
    <linearGradient id="linear-gradient-9" x1="11.59" y1="66.84" x2="98.19" y2="68.28" gradientUnits="userSpaceOnUse">
      <stop offset="0" stop-color="#0c64ff"/>
      <stop offset="1" stop-color="#3fe1ff"/>
    </linearGradient>
    <linearGradient id="linear-gradient-10" x1="56.82" y1="138.5" x2="56.96" y2="75.71" xlink:href="#linear-gradient-3"/>
    <linearGradient id="linear-gradient-11" x1="58.48" y1="-4.44" x2="57.32" y2="47.68" xlink:href="#linear-gradient-8"/>
    <linearGradient id="linear-gradient-12" x1="339.04" y1="27.32" x2="339.16" y2="37.34" gradientTransform="translate(-302.69 65.41) scale(1 -1)" xlink:href="#linear-gradient-3"/>
    <linearGradient id="linear-gradient-13" x1="339.04" y1="9.21" x2="339.16" y2="19.24" gradientTransform="translate(-302.69 87.63)" xlink:href="#linear-gradient-3"/>
    <linearGradient id="linear-gradient-14" x1="59.93" y1="66.93" x2="68.07" y2="67.25" gradientUnits="userSpaceOnUse">
      <stop offset="0" stop-color="#712286"/>
      <stop offset=".15" stop-color="#762a8a" stop-opacity=".96"/>
      <stop offset=".33" stop-color="#864398" stop-opacity=".85"/>
      <stop offset=".53" stop-color="#a16daf" stop-opacity=".66"/>
      <stop offset=".74" stop-color="#c6a7ce" stop-opacity=".4"/>
      <stop offset=".96" stop-color="#f5f0f7" stop-opacity=".06"/>
      <stop offset="1" stop-color="#fff" stop-opacity="0"/>
    </linearGradient>
    <linearGradient id="linear-gradient-15" x1="81.79" y1="66.63" x2="82.12" y2="76.95" xlink:href="#linear-gradient-3"/>
  </defs>
  <g class="cls-12">
    <g id="OBJECTS">
      <g>
        <path class="cls-18" d="m72.65,62.21c-2.07.34-4.06.51-5.77.51h-21.41v9.58h21.41c1.71,0,3.71.17,5.77.5l1.81.28v-11.17l-1.82.3Z"/>
        <path class="cls-10" d="m72.65,62.21c-2.07.34-4.06.51-5.77.51h-21.41v9.58h21.41c1.71,0,3.71.17,5.77.5l1.81.28v-11.17l-1.82.3Z"/>
        <rect class="cls-1" x="45.08" y="62.76" width="9.66" height="9.58"/>
        <path class="cls-19" d="m83.38,36.5h-30.82s0,60.91,0,60.91l2.07.29v.12s3.86.28,3.86.28c1.07.1,11.16.33,15.07.33,12.69,0,21.95-2.41,28.29-7.38,6.39-5,9.63-12.63,9.63-22.67,0-18.38-10.51-30.3-28.1-31.89Zm18.53,31.16c0,13.38-8.65,21.69-22.57,21.69-2.41,0-12.6-.22-17.14-.33v-43.28h19.99c11.98.65,19.71,9.26,19.71,21.93Z"/>
        <path class="cls-5" d="m111.48,67.98c-.16-18.14-10.63-29.9-28.1-31.48h-11.35s0,9.24,0,9.24h10.17c11.98.65,19.71,9.26,19.71,21.93,0,.1,0,.21,0,.31h9.57Z"/>
        <path class="cls-4" d="m101.9,68.61c-.4,12.83-8.96,20.75-22.55,20.75-1.15,0-4.08-.05-7.32-.11v9.19c.57,0,1.09,0,1.53,0,12.69,0,21.95-2.41,28.29-7.38,6.34-4.96,9.58-12.52,9.63-22.46h-9.58Z"/>
        <path class="cls-8" d="m83.38,36.5h-30.82s0,60.91,0,60.91l2.07.29v.12s3.86.28,3.86.28c1.07.1,11.16.33,15.07.33,12.69,0,21.95-2.41,28.29-7.38,6.39-5,9.63-12.63,9.63-22.67,0-18.38-10.51-30.3-28.1-31.89Zm17.47,53.28c-6.05,4.73-14.98,7.04-27.29,7.04-4.04,0-14-.24-14.92-.33l-2.34-.17v-.02s-2.11-.3-2.11-.3v-57.88h29.12c16.63,1.55,26.55,12.85,26.55,30.27,0,9.52-3.03,16.71-9.01,21.39Z"/>
        <path class="cls-14" d="m83.38,36.5h-30.82s0,60.91,0,60.91l2.07.29v.12s3.86.28,3.86.28c1.07.1,11.16.33,15.07.33,12.69,0,21.95-2.41,28.29-7.38,6.39-5,9.63-12.63,9.63-22.67,0-18.38-10.51-30.3-28.1-31.89Zm17.47,53.28c-6.05,4.73-14.98,7.04-27.29,7.04-4.04,0-14-.24-14.92-.33l-2.34-.17v-.02s-2.11-.3-2.11-.3v-57.88h29.12c16.63,1.55,26.55,12.85,26.55,30.27,0,9.52-3.03,16.71-9.01,21.39Z"/>
        <path class="cls-16" d="m100.08,81.71c.85,2.54,1.29,5.3,1.29,8.23,0,16.33-12.74,27.74-30.98,27.74H28.59c-4.28,0-7.87-1.6-11.31-5.04-2.94-2.94-4.44-6.28-4.6-10.21l-.06-1.63h9.3l.23,1.29c.15.83.64,2.92,2.07,4.34,1.05,1.05,2.71,1.76,7.08,1.78V26.73c-4.37.02-6.03.73-7.08,1.78-1.42,1.43-1.92,3.51-2.07,4.33l-.23,1.3h-9.3l.06-1.63c.16-3.94,1.66-7.28,4.6-10.22,3.44-3.44,7.03-5.04,11.31-5.04h41.8c18.24,0,30.98,11.4,30.98,27.73,0,9.42-4.27,17.02-11.71,20.86-.18.11-.42.25-.78.43-.8.43-1.56.81-2.29,1.15.98.44,1.96.97,2.93,1.57l.14.08c5.11,2.98,8.66,7.33,10.43,12.63Zm-8.8,8.23c0-3.22-.64-5.86-2.05-8.23-.92-1.53-2.16-2.94-3.75-4.3-3.55-3.01-12.65-5.11-18.6-5.11h-2.72v-9.58h2.72c6.64,0,15.33-2.43,18.61-5.21,4.07-3.48,5.8-7.23,5.8-12.53,0-10.8-7.05-17.62-18.87-18.24h-30.88v81.44h30.88c11.82-.61,18.87-7.43,18.87-18.24Z"/>
        <path class="cls-3" d="m89.66,69.09l-.14-.08c-.97-.6-1.95-1.13-2.93-1.57.73-.34,1.5-.72,2.29-1.15.36-.17.59-.31.78-.43,7.45-3.85,11.72-11.44,11.72-20.86,0-16.33-12.74-27.73-30.98-27.73H28.59c-4.27,0-7.87,1.6-11.31,5.04-2.94,2.94-4.44,6.28-4.6,10.22l-.06,1.63h1.88c.21-4.93,1.7-8.45,3.94-10.69,3.11-3.11,6.34-4.56,10.15-4.56h41.8c17.28,0,29.35,10.73,29.35,26.1,0,8.78-3.95,15.86-10.83,19.41l-.07.04-.07.04c-.13.09-.3.19-.58.32l-.09.05c-.75.41-1.49.78-2.19,1.11l-3.24,1.49,3.25,1.47c.91.41,1.84.91,2.75,1.47l.14.09c7.07,4.12,10.94,11.03,10.94,19.47,0,15.37-12.07,26.1-29.35,26.1H28.59c-3.82,0-7.04-1.45-10.15-4.56-2.43-2.43-4.41-6.02-4.2-10.69h-1.61l.06,1.63c.15,3.94,1.66,7.28,4.6,10.22,3.44,3.44,7.03,5.04,11.31,5.04h41.8c18.24,0,30.98-11.4,30.98-27.73,0-9.04-4.16-16.45-11.71-20.86Z"/>
        <path class="cls-13" d="m89.66,69.09l-.14-.08c-.97-.6-1.95-1.13-2.93-1.57.73-.34,1.5-.72,2.29-1.15.36-.17.59-.31.78-.43,7.45-3.85,11.72-11.44,11.72-20.86,0-16.33-12.74-27.73-30.98-27.73H28.59c-4.27,0-7.87,1.6-11.31,5.04-2.94,2.94-4.44,6.28-4.6,10.22l-.06,1.63h1.88c.21-4.93,1.7-8.45,3.94-10.69,3.11-3.11,6.34-4.56,10.15-4.56h41.8c17.28,0,29.35,10.73,29.35,26.1,0,8.78-3.95,15.86-10.83,19.41l-.07.04-.07.04c-.13.09-.3.19-.58.32l-.09.05c-.75.41-1.49.78-2.19,1.11l-3.24,1.49,3.25,1.47c.91.41,1.84.91,2.75,1.47l.14.09c7.07,4.12,10.94,11.03,10.94,19.47,0,15.37-12.07,26.1-29.35,26.1H28.59c-3.82,0-7.04-1.45-10.15-4.56-2.43-2.43-4.41-6.02-4.2-10.69h-1.61l.06,1.63c.15,3.94,1.66,7.28,4.6,10.22,3.44,3.44,7.03,5.04,11.31,5.04h41.8c18.24,0,30.98-11.4,30.98-27.73,0-9.04-4.16-16.45-11.71-20.86Z"/>
        <path class="cls-7" d="m31.31,26.75h10.23v11.91h0c-5.65,0-10.23-4.58-10.23-10.23v-1.69h0Z" transform="translate(72.84 65.41) rotate(180)"/>
        <path class="cls-2" d="m41.53,96.27h0v11.91h-10.23v-1.69c0-5.65,4.58-10.23,10.23-10.23Z" transform="translate(72.84 204.46) rotate(180)"/>
        <g class="cls-9">
          <path class="cls-11" d="m66.88,72.31c1.71,0,3.71.17,5.77.5l1.81.28v-11.17l-1.82.3c-2.07.34-4.06.51-5.77.51h-4.67v9.58h4.67Z"/>
        </g>
        <path class="cls-6" d="m100.08,81.72h-10.85c-.91-1.53-2.16-2.94-3.75-4.3-3.55-3.01-12.65-5.11-18.6-5.11h-2.72v-.03c14.86-.37,22.43-4.85,22.43-4.85.98.44,1.96.97,2.93,1.57l.14.08c5.11,2.98,8.66,7.33,10.43,12.63Z"/>
      </g>
      <text class="cls-15" transform="translate(121.27 83.41)"><tspan x="0" y="0">Byted Digi</tspan></text>
      <rect class="cls-17" x="1.66" y="1.66" width="456.32" height="131.61" rx="13.64" ry="13.64"/>
    </g>
  </g>
</svg>